<svg width="54" height="20" viewBox="0 0 54 20" fill="none" xmlns="http://www.w3.org/2000/svg">
<path d="M9.72659 0.605358C9.83289 0.370003 10.1671 0.370003 10.2734 0.605358L13.0646 6.78545C13.0947 6.85201 13.148 6.90531 13.2145 6.93538L19.3946 9.72659C19.63 9.83289 19.63 10.1671 19.3946 10.2734L13.2145 13.0646C13.148 13.0947 13.0947 13.148 13.0646 13.2145L10.2734 19.3946C10.1671 19.63 9.83289 19.63 9.72659 19.3946L6.93538 13.2145C6.90531 13.148 6.85201 13.0947 6.78545 13.0646L0.605358 10.2734C0.370003 10.1671 0.370003 9.83289 0.605358 9.72659L6.78545 6.93538C6.85201 6.90531 6.90531 6.85201 6.93538 6.78545L9.72659 0.605358Z" fill="#FF7E21"/>
<path d="M34.3496 4.83295C34.4081 4.7035 34.5919 4.7035 34.6504 4.83295L36.1855 8.232C36.2021 8.2686 36.2314 8.29792 36.268 8.31446L39.6671 9.84963C39.7965 9.90809 39.7965 10.0919 39.6671 10.1504L36.268 11.6855C36.2314 11.7021 36.2021 11.7314 36.1855 11.768L34.6504 15.1671C34.5919 15.2965 34.4081 15.2965 34.3496 15.1671L32.8145 11.768C32.7979 11.7314 32.7686 11.7021 32.732 11.6855L29.3329 10.1504C29.2035 10.0919 29.2035 9.90809 29.3329 9.84963L32.732 8.31446C32.7686 8.29792 32.7979 8.2686 32.8145 8.232L34.3496 4.83295Z" fill="#FFA563"/>
<path d="M51.4316 7.65134C51.4582 7.5925 51.5418 7.5925 51.5684 7.65134L52.2662 9.19636C52.2737 9.213 52.287 9.22633 52.3036 9.23384L53.8487 9.93165C53.9075 9.95822 53.9075 10.0418 53.8487 10.0684L52.3036 10.7662C52.287 10.7737 52.2737 10.787 52.2662 10.8036L51.5684 12.3487C51.5418 12.4075 51.4582 12.4075 51.4316 12.3487L50.7338 10.8036C50.7263 10.787 50.713 10.7737 50.6964 10.7662L49.1513 10.0684C49.0925 10.0418 49.0925 9.95822 49.1513 9.93165L50.6964 9.23384C50.713 9.22633 50.7263 9.213 50.7338 9.19636L51.4316 7.65134Z" fill="#FFCCA7"/>
</svg>
